<mxfile host="65bd71144e">
    <diagram id="9AL_iBeyxNEIxK2HOIyZ" name="Page-1">
        <mxGraphModel dx="1054" dy="692" grid="1" gridSize="10" guides="1" tooltips="1" connect="1" arrows="1" fold="1" page="1" pageScale="1" pageWidth="850" pageHeight="1100" math="0" shadow="0">
            <root>
                <mxCell id="0"/>
                <mxCell id="1" parent="0"/>
                <mxCell id="54" value="Main Menu - User POV" style="swimlane;whiteSpace=wrap;html=1;startSize=23;" parent="1" vertex="1">
                    <mxGeometry x="10" y="10" width="440" height="250" as="geometry"/>
                </mxCell>
                <mxCell id="66" value="&lt;div&gt;Show/print&lt;/div&gt;Current Stage" style="rounded=1;whiteSpace=wrap;html=1;" parent="54" vertex="1">
                    <mxGeometry x="140" y="150" width="120" height="60" as="geometry"/>
                </mxCell>
                <mxCell id="68" value="Show/print&lt;span style=&quot;color: rgb(63, 63, 63); background-color: transparent;&quot;&gt;&amp;nbsp;&lt;/span&gt;&lt;div&gt;&lt;div&gt;Meta Data&lt;/div&gt;&lt;/div&gt;" style="rounded=1;whiteSpace=wrap;html=1;" parent="54" vertex="1">
                    <mxGeometry x="140" y="65" width="120" height="60" as="geometry"/>
                </mxCell>
                <mxCell id="64" value="Meta Data" style="swimlane;whiteSpace=wrap;html=1;" parent="1" vertex="1">
                    <mxGeometry x="470" y="10" width="380" height="210" as="geometry"/>
                </mxCell>
                <mxCell id="56" value="Print" style="rounded=1;whiteSpace=wrap;html=1;" parent="64" vertex="1">
                    <mxGeometry x="145" y="35" width="90" height="50" as="geometry"/>
                </mxCell>
                <mxCell id="58" value="Title" style="rounded=1;whiteSpace=wrap;html=1;" parent="64" vertex="1">
                    <mxGeometry x="145" y="125" width="90" height="50" as="geometry"/>
                </mxCell>
                <mxCell id="57" value="Logo" style="rounded=1;whiteSpace=wrap;html=1;" parent="64" vertex="1">
                    <mxGeometry x="10" y="125" width="90" height="50" as="geometry"/>
                </mxCell>
                <mxCell id="59" value="Description" style="rounded=1;whiteSpace=wrap;html=1;" parent="64" vertex="1">
                    <mxGeometry x="280" y="125" width="90" height="50" as="geometry"/>
                </mxCell>
                <mxCell id="61" style="edgeStyle=none;html=1;exitX=0.5;exitY=1;exitDx=0;exitDy=0;entryX=0.5;entryY=0;entryDx=0;entryDy=0;" parent="64" source="56" target="58" edge="1">
                    <mxGeometry relative="1" as="geometry"/>
                </mxCell>
                <mxCell id="60" style="edgeStyle=none;html=1;exitX=0.25;exitY=1;exitDx=0;exitDy=0;entryX=0.5;entryY=0;entryDx=0;entryDy=0;" parent="64" source="56" target="57" edge="1">
                    <mxGeometry relative="1" as="geometry"/>
                </mxCell>
                <mxCell id="62" style="edgeStyle=none;html=1;exitX=0.75;exitY=1;exitDx=0;exitDy=0;entryX=0.5;entryY=0;entryDx=0;entryDy=0;" parent="64" source="56" target="59" edge="1">
                    <mxGeometry relative="1" as="geometry"/>
                </mxCell>
                <mxCell id="106" style="edgeStyle=none;html=1;exitX=0.5;exitY=1;exitDx=0;exitDy=0;entryX=0.5;entryY=0;entryDx=0;entryDy=0;" parent="1" source="70" target="84" edge="1">
                    <mxGeometry relative="1" as="geometry"/>
                </mxCell>
                <mxCell id="70" value="First Stage - Analyze" style="swimlane;whiteSpace=wrap;html=1;" parent="1" vertex="1">
                    <mxGeometry x="410" y="530" width="440" height="200" as="geometry"/>
                </mxCell>
                <mxCell id="74" style="edgeStyle=none;html=1;exitX=1;exitY=0.5;exitDx=0;exitDy=0;entryX=0;entryY=0.5;entryDx=0;entryDy=0;" parent="70" source="71" target="72" edge="1">
                    <mxGeometry relative="1" as="geometry"/>
                </mxCell>
                <mxCell id="71" value="print&lt;div&gt;Ask for file path&lt;/div&gt;" style="rounded=1;whiteSpace=wrap;html=1;" parent="70" vertex="1">
                    <mxGeometry x="10" y="40" width="120" height="60" as="geometry"/>
                </mxCell>
                <mxCell id="75" style="edgeStyle=none;html=1;exitX=1;exitY=0.5;exitDx=0;exitDy=0;entryX=0;entryY=0.5;entryDx=0;entryDy=0;" parent="70" source="72" target="73" edge="1">
                    <mxGeometry relative="1" as="geometry"/>
                </mxCell>
                <mxCell id="72" value="input&lt;br&gt;&lt;div&gt;entered file path&lt;/div&gt;" style="rounded=1;whiteSpace=wrap;html=1;" parent="70" vertex="1">
                    <mxGeometry x="160" y="40" width="120" height="60" as="geometry"/>
                </mxCell>
                <mxCell id="77" style="edgeStyle=none;html=1;exitX=0.5;exitY=1;exitDx=0;exitDy=0;entryX=0.5;entryY=0;entryDx=0;entryDy=0;" parent="70" source="73" target="78" edge="1">
                    <mxGeometry relative="1" as="geometry">
                        <mxPoint x="460" y="70" as="targetPoint"/>
                    </mxGeometry>
                </mxCell>
                <mxCell id="73" value="read&lt;br&gt;&lt;div&gt;each line, loaded file&lt;/div&gt;" style="rounded=1;whiteSpace=wrap;html=1;" parent="70" vertex="1">
                    <mxGeometry x="310" y="40" width="120" height="60" as="geometry"/>
                </mxCell>
                <mxCell id="81" style="edgeStyle=none;html=1;exitX=0;exitY=0.5;exitDx=0;exitDy=0;entryX=1;entryY=0.5;entryDx=0;entryDy=0;" parent="70" source="78" target="80" edge="1">
                    <mxGeometry relative="1" as="geometry"/>
                </mxCell>
                <mxCell id="78" value="analyze&lt;div&gt;send line to each function to analyze&lt;/div&gt;" style="rounded=1;whiteSpace=wrap;html=1;" parent="70" vertex="1">
                    <mxGeometry x="310" y="120" width="120" height="60" as="geometry"/>
                </mxCell>
                <mxCell id="83" style="edgeStyle=none;html=1;exitX=0;exitY=0.5;exitDx=0;exitDy=0;entryX=1;entryY=0.5;entryDx=0;entryDy=0;" parent="70" source="80" target="82" edge="1">
                    <mxGeometry relative="1" as="geometry"/>
                </mxCell>
                <mxCell id="80" value="Create file&lt;div&gt;JSON&lt;/div&gt;&lt;div&gt;for each function&lt;/div&gt;" style="rounded=1;whiteSpace=wrap;html=1;" parent="70" vertex="1">
                    <mxGeometry x="160" y="120" width="120" height="60" as="geometry"/>
                </mxCell>
                <mxCell id="82" value="Store data&lt;div&gt;from each function&lt;/div&gt;" style="rounded=1;whiteSpace=wrap;html=1;" parent="70" vertex="1">
                    <mxGeometry x="10" y="120" width="120" height="60" as="geometry"/>
                </mxCell>
                <mxCell id="84" value="Second Stage - Convert data to graphs" style="swimlane;whiteSpace=wrap;html=1;" parent="1" vertex="1">
                    <mxGeometry x="410" y="750" width="440" height="380" as="geometry"/>
                </mxCell>
                <mxCell id="85" style="edgeStyle=none;html=1;exitX=1;exitY=0.5;exitDx=0;exitDy=0;entryX=0;entryY=0.5;entryDx=0;entryDy=0;" parent="84" source="86" target="88" edge="1">
                    <mxGeometry relative="1" as="geometry"/>
                </mxCell>
                <mxCell id="86" value="Read&lt;div&gt;data from JSON&lt;/div&gt;&lt;div&gt;for each function&lt;/div&gt;" style="rounded=1;whiteSpace=wrap;html=1;" parent="84" vertex="1">
                    <mxGeometry x="10" y="40" width="120" height="60" as="geometry"/>
                </mxCell>
                <mxCell id="131" style="edgeStyle=none;html=1;exitX=1;exitY=0.5;exitDx=0;exitDy=0;entryX=0;entryY=0.5;entryDx=0;entryDy=0;" parent="84" source="88" target="130" edge="1">
                    <mxGeometry relative="1" as="geometry"/>
                </mxCell>
                <mxCell id="88" value="graph&lt;div&gt;using numpy and matplotlib&lt;/div&gt;" style="rounded=1;whiteSpace=wrap;html=1;" parent="84" vertex="1">
                    <mxGeometry x="160" y="40" width="120" height="60" as="geometry"/>
                </mxCell>
                <mxCell id="125" style="edgeStyle=none;html=1;exitX=0.5;exitY=1;exitDx=0;exitDy=0;entryX=0.5;entryY=0;entryDx=0;entryDy=0;" parent="84" source="90" target="94" edge="1">
                    <mxGeometry relative="1" as="geometry"/>
                </mxCell>
                <mxCell id="90" value="Export&lt;div&gt;Statistics (Optional)&lt;/div&gt;" style="rounded=1;whiteSpace=wrap;html=1;" parent="84" vertex="1">
                    <mxGeometry x="160" y="170" width="120" height="60" as="geometry"/>
                </mxCell>
                <mxCell id="92" value="JSON" style="rounded=1;whiteSpace=wrap;html=1;" parent="84" vertex="1">
                    <mxGeometry x="310" y="295" width="120" height="60" as="geometry"/>
                </mxCell>
                <mxCell id="94" value="Image" style="rounded=1;whiteSpace=wrap;html=1;" parent="84" vertex="1">
                    <mxGeometry x="160" y="295" width="120" height="60" as="geometry"/>
                </mxCell>
                <mxCell id="95" value="Excel" style="rounded=1;whiteSpace=wrap;html=1;" parent="84" vertex="1">
                    <mxGeometry x="10" y="295" width="120" height="60" as="geometry"/>
                </mxCell>
                <mxCell id="128" value="" style="curved=1;endArrow=classic;html=1;exitX=0.5;exitY=1;exitDx=0;exitDy=0;entryX=0.5;entryY=0;entryDx=0;entryDy=0;" parent="84" source="90" target="95" edge="1">
                    <mxGeometry width="50" height="50" relative="1" as="geometry">
                        <mxPoint x="50" y="275" as="sourcePoint"/>
                        <mxPoint x="100" y="225" as="targetPoint"/>
                        <Array as="points">
                            <mxPoint x="220" y="275"/>
                            <mxPoint x="70" y="255"/>
                        </Array>
                    </mxGeometry>
                </mxCell>
                <mxCell id="129" value="" style="curved=1;endArrow=classic;html=1;exitX=0.5;exitY=1;exitDx=0;exitDy=0;entryX=0.5;entryY=0;entryDx=0;entryDy=0;" parent="84" source="90" target="92" edge="1">
                    <mxGeometry width="50" height="50" relative="1" as="geometry">
                        <mxPoint x="230" y="240" as="sourcePoint"/>
                        <mxPoint x="80" y="305" as="targetPoint"/>
                        <Array as="points">
                            <mxPoint x="220" y="275"/>
                            <mxPoint x="370" y="255"/>
                        </Array>
                    </mxGeometry>
                </mxCell>
                <mxCell id="130" value="Showcase&lt;div&gt;show the graph/statistics to the user&lt;/div&gt;" style="rounded=1;whiteSpace=wrap;html=1;" parent="84" vertex="1">
                    <mxGeometry x="300" y="40" width="130" height="70" as="geometry"/>
                </mxCell>
                <mxCell id="133" value="" style="curved=1;endArrow=classic;html=1;exitX=0.5;exitY=1;exitDx=0;exitDy=0;entryX=0.5;entryY=0;entryDx=0;entryDy=0;" parent="84" source="130" target="90" edge="1">
                    <mxGeometry width="50" height="50" relative="1" as="geometry">
                        <mxPoint x="365" y="50" as="sourcePoint"/>
                        <mxPoint x="260" y="90" as="targetPoint"/>
                        <Array as="points">
                            <mxPoint x="380" y="150"/>
                            <mxPoint x="210" y="130"/>
                        </Array>
                    </mxGeometry>
                </mxCell>
                <mxCell id="108" value="" style="curved=1;endArrow=classic;html=1;exitX=1;exitY=0.75;exitDx=0;exitDy=0;entryX=0;entryY=0.25;entryDx=0;entryDy=0;" parent="1" source="68" target="64" edge="1">
                    <mxGeometry width="50" height="50" relative="1" as="geometry">
                        <mxPoint x="310" y="130" as="sourcePoint"/>
                        <mxPoint x="360" y="80" as="targetPoint"/>
                        <Array as="points">
                            <mxPoint x="360" y="115"/>
                            <mxPoint x="310" y="63"/>
                        </Array>
                    </mxGeometry>
                </mxCell>
                <mxCell id="112" style="edgeStyle=none;html=1;exitX=1;exitY=0.5;exitDx=0;exitDy=0;entryX=0;entryY=0.25;entryDx=0;entryDy=0;" parent="1" source="110" target="70" edge="1">
                    <mxGeometry relative="1" as="geometry"/>
                </mxCell>
                <mxCell id="110" value="First Stage - User POV" style="swimlane;whiteSpace=wrap;html=1;" parent="1" vertex="1">
                    <mxGeometry x="75" y="530" width="310" height="200" as="geometry"/>
                </mxCell>
                <mxCell id="114" value="&lt;pre&gt;print&lt;br/&gt;Select a file to analyze: &lt;/pre&gt;&lt;pre&gt;&lt;p data-pm-slice=&quot;0 0 []&quot;&gt;&lt;span style=&quot;background-color: transparent; font-family: Helvetica; white-space: normal; font-size: 10px;&quot;&gt;(e.g &#39;./files/file.txt&#39; or &#39;C:\\Users\\User\\Desktop\\file.txt&#39;)&lt;/span&gt;&lt;/p&gt;&lt;/pre&gt;" style="rounded=1;whiteSpace=wrap;html=1;" parent="110" vertex="1">
                    <mxGeometry x="10" y="30" width="290" height="80" as="geometry"/>
                </mxCell>
                <mxCell id="116" value="&lt;div&gt;input&lt;/div&gt;&lt;div&gt;~&amp;gt; ./data/something.pdf&lt;/div&gt;" style="rounded=1;whiteSpace=wrap;html=1;" parent="110" vertex="1">
                    <mxGeometry x="10" y="120" width="290" height="60" as="geometry"/>
                </mxCell>
                <mxCell id="113" style="edgeStyle=none;html=1;exitX=1;exitY=0.5;exitDx=0;exitDy=0;entryX=0;entryY=0.25;entryDx=0;entryDy=0;" parent="1" source="111" target="84" edge="1">
                    <mxGeometry relative="1" as="geometry"/>
                </mxCell>
                <mxCell id="111" value="Second Stage - User POV" style="swimlane;whiteSpace=wrap;html=1;" parent="1" vertex="1">
                    <mxGeometry x="70" y="750" width="310" height="250" as="geometry"/>
                </mxCell>
                <mxCell id="119" value="Print&lt;div&gt;Select an option:&amp;nbsp;&lt;/div&gt;" style="rounded=1;whiteSpace=wrap;html=1;" parent="111" vertex="1">
                    <mxGeometry x="15" y="30" width="285" height="40" as="geometry"/>
                </mxCell>
                <mxCell id="120" value="Print&lt;div&gt;1. Option 1&lt;/div&gt;" style="rounded=1;whiteSpace=wrap;html=1;" parent="111" vertex="1">
                    <mxGeometry x="12.5" y="80" width="77.5" height="40" as="geometry"/>
                </mxCell>
                <mxCell id="121" value="Print&lt;div&gt;2. Option 2&lt;/div&gt;" style="rounded=1;whiteSpace=wrap;html=1;" parent="111" vertex="1">
                    <mxGeometry x="100" y="80" width="77.5" height="40" as="geometry"/>
                </mxCell>
                <mxCell id="122" value="Print&lt;div&gt;x. Option X&lt;/div&gt;" style="rounded=1;whiteSpace=wrap;html=1;" parent="111" vertex="1">
                    <mxGeometry x="190" y="80" width="77.5" height="40" as="geometry"/>
                </mxCell>
                <mxCell id="123" value="Print&lt;div&gt;0. Exit&lt;/div&gt;" style="rounded=1;whiteSpace=wrap;html=1;" parent="111" vertex="1">
                    <mxGeometry x="118.75" y="130" width="77.5" height="40" as="geometry"/>
                </mxCell>
                <mxCell id="124" value="Input&lt;div&gt;~&amp;gt; 1&lt;/div&gt;" style="rounded=1;whiteSpace=wrap;html=1;" parent="111" vertex="1">
                    <mxGeometry x="12.5" y="190" width="285" height="40" as="geometry"/>
                </mxCell>
                <mxCell id="117" value="" style="curved=1;endArrow=classic;html=1;entryX=0;entryY=0.5;entryDx=0;entryDy=0;exitX=0;exitY=0.5;exitDx=0;exitDy=0;" parent="1" source="66" target="110" edge="1">
                    <mxGeometry width="50" height="50" relative="1" as="geometry">
                        <mxPoint x="220" y="270" as="sourcePoint"/>
                        <mxPoint x="110" y="210" as="targetPoint"/>
                        <Array as="points">
                            <mxPoint x="100" y="180"/>
                            <mxPoint x="40" y="290"/>
                            <mxPoint x="20" y="610"/>
                        </Array>
                    </mxGeometry>
                </mxCell>
                <mxCell id="118" value="" style="curved=1;endArrow=classic;html=1;exitX=0;exitY=0.5;exitDx=0;exitDy=0;entryX=0;entryY=0.5;entryDx=0;entryDy=0;" parent="1" source="66" target="111" edge="1">
                    <mxGeometry width="50" height="50" relative="1" as="geometry">
                        <mxPoint x="60" y="210" as="sourcePoint"/>
                        <mxPoint x="110" y="160" as="targetPoint"/>
                        <Array as="points">
                            <mxPoint x="80" y="180"/>
                            <mxPoint x="10" y="370"/>
                            <mxPoint x="10" y="880"/>
                        </Array>
                    </mxGeometry>
                </mxCell>
                <mxCell id="135" value="Last Stage - User POV" style="swimlane;whiteSpace=wrap;html=1;" parent="1" vertex="1">
                    <mxGeometry x="10" y="1060" width="390" height="270" as="geometry"/>
                </mxCell>
                <mxCell id="137" value="Selected option X" style="rounded=1;whiteSpace=wrap;html=1;" parent="135" vertex="1">
                    <mxGeometry x="10" y="30" width="360" height="30" as="geometry"/>
                </mxCell>
                <mxCell id="138" value="Show statistics or graph" style="rounded=1;whiteSpace=wrap;html=1;" parent="135" vertex="1">
                    <mxGeometry x="10" y="80" width="360" height="30" as="geometry"/>
                </mxCell>
                <mxCell id="141" style="edgeStyle=none;html=1;exitX=0.5;exitY=1;exitDx=0;exitDy=0;entryX=0.5;entryY=0;entryDx=0;entryDy=0;" parent="135" source="139" target="140" edge="1">
                    <mxGeometry relative="1" as="geometry"/>
                </mxCell>
                <mxCell id="144" style="edgeStyle=none;html=1;exitX=0.5;exitY=1;exitDx=0;exitDy=0;entryX=0.5;entryY=0;entryDx=0;entryDy=0;" parent="135" source="139" target="142" edge="1">
                    <mxGeometry relative="1" as="geometry"/>
                </mxCell>
                <mxCell id="146" style="edgeStyle=none;html=1;exitX=0.5;exitY=1;exitDx=0;exitDy=0;" parent="135" source="139" target="145" edge="1">
                    <mxGeometry relative="1" as="geometry"/>
                </mxCell>
                <mxCell id="139" value="Export button" style="rounded=1;whiteSpace=wrap;html=1;" parent="135" vertex="1">
                    <mxGeometry x="10" y="130" width="190" height="30" as="geometry"/>
                </mxCell>
                <mxCell id="140" value="JSON" style="rounded=1;whiteSpace=wrap;html=1;" parent="135" vertex="1">
                    <mxGeometry x="10" y="180" width="90" height="30" as="geometry"/>
                </mxCell>
                <mxCell id="142" value="Excel" style="rounded=1;whiteSpace=wrap;html=1;" parent="135" vertex="1">
                    <mxGeometry x="110" y="180" width="90" height="30" as="geometry"/>
                </mxCell>
                <mxCell id="143" value="Exit" style="rounded=1;whiteSpace=wrap;html=1;" parent="135" vertex="1">
                    <mxGeometry x="290" y="210" width="90" height="30" as="geometry"/>
                </mxCell>
                <mxCell id="145" value="Image" style="rounded=1;whiteSpace=wrap;html=1;" parent="135" vertex="1">
                    <mxGeometry x="60" y="230" width="90" height="30" as="geometry"/>
                </mxCell>
                <mxCell id="136" value="" style="shape=flexArrow;endArrow=classic;startArrow=classic;html=1;entryX=0.5;entryY=1;entryDx=0;entryDy=0;exitX=0.5;exitY=0;exitDx=0;exitDy=0;endWidth=8.548387096774194;endSize=2.67;width=4;startSize=2.67;startWidth=8.548387096774194;" parent="1" source="135" target="111" edge="1">
                    <mxGeometry width="100" height="100" relative="1" as="geometry">
                        <mxPoint x="180" y="1180" as="sourcePoint"/>
                        <mxPoint x="280" y="1080" as="targetPoint"/>
                        <Array as="points">
                            <mxPoint x="225" y="1000"/>
                        </Array>
                    </mxGeometry>
                </mxCell>
                <mxCell id="148" value="GRADE E" style="swimlane;" vertex="1" parent="1">
                    <mxGeometry x="990" y="10" width="200" height="250" as="geometry"/>
                </mxCell>
                <mxCell id="152" value="Number of lines, words, characters, average words per line, characters per word" style="text;html=1;align=center;verticalAlign=middle;whiteSpace=wrap;rounded=0;" vertex="1" parent="148">
                    <mxGeometry x="10" y="30" width="180" height="50" as="geometry"/>
                </mxCell>
                <mxCell id="149" value="GRADE C" style="swimlane;startSize=23;" vertex="1" parent="1">
                    <mxGeometry x="1210" y="10" width="200" height="250" as="geometry"/>
                </mxCell>
                <mxCell id="153" value="Top 10 words, word length distribution, unique words, words only appearing once" style="text;html=1;align=center;verticalAlign=middle;whiteSpace=wrap;rounded=0;" vertex="1" parent="149">
                    <mxGeometry x="10" y="35" width="180" height="50" as="geometry"/>
                </mxCell>
                <mxCell id="150" value="GRADE B" style="swimlane;" vertex="1" parent="1">
                    <mxGeometry x="990" y="280" width="200" height="200" as="geometry"/>
                </mxCell>
                <mxCell id="154" value="Average words per sentence, longest and shortest, sentence distribution" style="text;html=1;align=center;verticalAlign=middle;whiteSpace=wrap;rounded=0;" vertex="1" parent="150">
                    <mxGeometry x="10" y="40" width="180" height="50" as="geometry"/>
                </mxCell>
                <mxCell id="151" value="GRADE A" style="swimlane;" vertex="1" parent="1">
                    <mxGeometry x="1210" y="280" width="200" height="200" as="geometry"/>
                </mxCell>
                <mxCell id="155" value="letter frequency distribution, punctuation statistics, case distribution" style="text;html=1;align=center;verticalAlign=middle;whiteSpace=wrap;rounded=0;" vertex="1" parent="151">
                    <mxGeometry x="10" y="30" width="180" height="50" as="geometry"/>
                </mxCell>
                <mxCell id="171" style="edgeStyle=none;html=1;exitX=1;exitY=0.75;exitDx=0;exitDy=0;entryX=0;entryY=0.5;entryDx=0;entryDy=0;" edge="1" parent="1" source="156" target="159">
                    <mxGeometry relative="1" as="geometry">
                        <mxPoint x="400" y="380" as="targetPoint"/>
                    </mxGeometry>
                </mxCell>
                <mxCell id="172" style="edgeStyle=none;html=1;exitX=0.5;exitY=1;exitDx=0;exitDy=0;entryX=0.5;entryY=0;entryDx=0;entryDy=0;" edge="1" parent="1" source="156" target="110">
                    <mxGeometry relative="1" as="geometry"/>
                </mxCell>
                <mxCell id="156" value="First Stage - User POV" style="swimlane;whiteSpace=wrap;html=1;" vertex="1" parent="1">
                    <mxGeometry x="75" y="290" width="310" height="210" as="geometry"/>
                </mxCell>
                <mxCell id="157" value="&lt;pre style=&quot;line-height: 100%;&quot;&gt;&lt;font style=&quot;font-size: 10px; line-height: 100%;&quot;&gt;print&lt;/font&gt;&lt;/pre&gt;&lt;pre style=&quot;line-height: 100%;&quot;&gt;&lt;font style=&quot;font-size: 10px; line-height: 100%;&quot;&gt;1. path 1&lt;br&gt;2. path 2&lt;br&gt;x. path x&lt;br&gt;&lt;br&gt;0. Exit&lt;/font&gt;&lt;/pre&gt;" style="rounded=1;whiteSpace=wrap;html=1;" vertex="1" parent="156">
                    <mxGeometry x="10" y="30" width="290" height="100" as="geometry"/>
                </mxCell>
                <mxCell id="158" value="&lt;div&gt;input&lt;/div&gt;&lt;div&gt;~&amp;gt; 1&lt;/div&gt;" style="rounded=1;whiteSpace=wrap;html=1;" vertex="1" parent="156">
                    <mxGeometry x="10" y="140" width="290" height="60" as="geometry"/>
                </mxCell>
                <mxCell id="159" value="First Stage - Analyze" style="swimlane;whiteSpace=wrap;html=1;" vertex="1" parent="1">
                    <mxGeometry x="410" y="290" width="440" height="200" as="geometry"/>
                </mxCell>
                <mxCell id="160" style="edgeStyle=none;html=1;exitX=1;exitY=0.5;exitDx=0;exitDy=0;entryX=0;entryY=0.5;entryDx=0;entryDy=0;" edge="1" parent="159" source="161" target="163">
                    <mxGeometry relative="1" as="geometry"/>
                </mxCell>
                <mxCell id="161" value="print&lt;div&gt;Ask for file path&lt;/div&gt;" style="rounded=1;whiteSpace=wrap;html=1;" vertex="1" parent="159">
                    <mxGeometry x="10" y="40" width="120" height="60" as="geometry"/>
                </mxCell>
                <mxCell id="162" style="edgeStyle=none;html=1;exitX=1;exitY=0.5;exitDx=0;exitDy=0;entryX=0;entryY=0.5;entryDx=0;entryDy=0;" edge="1" parent="159" source="163" target="165">
                    <mxGeometry relative="1" as="geometry"/>
                </mxCell>
                <mxCell id="163" value="input&lt;br&gt;&lt;div&gt;entered file path&lt;/div&gt;" style="rounded=1;whiteSpace=wrap;html=1;" vertex="1" parent="159">
                    <mxGeometry x="160" y="40" width="120" height="60" as="geometry"/>
                </mxCell>
                <mxCell id="164" style="edgeStyle=none;html=1;exitX=0.5;exitY=1;exitDx=0;exitDy=0;entryX=0.5;entryY=0;entryDx=0;entryDy=0;" edge="1" parent="159" source="165" target="167">
                    <mxGeometry relative="1" as="geometry">
                        <mxPoint x="460" y="70" as="targetPoint"/>
                    </mxGeometry>
                </mxCell>
                <mxCell id="165" value="read&lt;br&gt;&lt;div&gt;each line, loaded file&lt;/div&gt;" style="rounded=1;whiteSpace=wrap;html=1;" vertex="1" parent="159">
                    <mxGeometry x="310" y="40" width="120" height="60" as="geometry"/>
                </mxCell>
                <mxCell id="166" style="edgeStyle=none;html=1;exitX=0;exitY=0.5;exitDx=0;exitDy=0;entryX=1;entryY=0.5;entryDx=0;entryDy=0;" edge="1" parent="159" source="167" target="169">
                    <mxGeometry relative="1" as="geometry"/>
                </mxCell>
                <mxCell id="167" value="analyze&lt;div&gt;send line to each function to analyze&lt;/div&gt;" style="rounded=1;whiteSpace=wrap;html=1;" vertex="1" parent="159">
                    <mxGeometry x="310" y="120" width="120" height="60" as="geometry"/>
                </mxCell>
                <mxCell id="168" style="edgeStyle=none;html=1;exitX=0;exitY=0.5;exitDx=0;exitDy=0;entryX=1;entryY=0.5;entryDx=0;entryDy=0;" edge="1" parent="159" source="169" target="170">
                    <mxGeometry relative="1" as="geometry"/>
                </mxCell>
                <mxCell id="169" value="Create file&lt;div&gt;JSON&lt;/div&gt;&lt;div&gt;for each function&lt;/div&gt;" style="rounded=1;whiteSpace=wrap;html=1;" vertex="1" parent="159">
                    <mxGeometry x="160" y="120" width="120" height="60" as="geometry"/>
                </mxCell>
                <mxCell id="170" value="Store data&lt;div&gt;from each function&lt;/div&gt;" style="rounded=1;whiteSpace=wrap;html=1;" vertex="1" parent="159">
                    <mxGeometry x="10" y="120" width="120" height="60" as="geometry"/>
                </mxCell>
                <mxCell id="173" value="" style="curved=1;endArrow=classic;html=1;entryX=0;entryY=0.5;entryDx=0;entryDy=0;exitX=0;exitY=0.5;exitDx=0;exitDy=0;" edge="1" parent="1" source="66" target="156">
                    <mxGeometry width="50" height="50" relative="1" as="geometry">
                        <mxPoint x="400" y="520" as="sourcePoint"/>
                        <mxPoint x="450" y="470" as="targetPoint"/>
                        <Array as="points">
                            <mxPoint x="60" y="270"/>
                            <mxPoint x="40" y="400"/>
                        </Array>
                    </mxGeometry>
                </mxCell>
            </root>
        </mxGraphModel>
    </diagram>
</mxfile>